<svg width="1080" height="540" viewBox="0 0 1080 540" fill="none" xmlns="http://www.w3.org/2000/svg">
<g clip-path="url(#clip0_1101_2)">
<rect width="1080" height="540" fill="#18203A"/>
<path d="M246.915 496.311C257.375 496.311 264.99 494.542 269.758 491.004C274.527 487.466 276.911 482.466 276.911 476.006C276.911 472.16 276.065 468.853 274.373 466.084C272.835 463.315 270.527 460.854 267.451 458.7C264.528 456.393 260.913 454.316 256.606 452.47C252.299 450.471 247.377 448.548 241.839 446.702C236.301 444.702 230.917 442.549 225.687 440.241C220.611 437.78 216.073 434.781 212.074 431.243C208.228 427.705 205.075 423.474 202.614 418.552C200.306 413.63 199.152 407.707 199.152 400.785C199.152 386.326 204.152 375.019 214.15 366.867C224.149 358.56 237.763 354.407 254.991 354.407C264.99 354.407 273.835 355.561 281.526 357.868C289.371 360.021 295.524 362.406 299.985 365.021L290.986 388.556C285.756 385.633 279.988 383.403 273.681 381.865C267.528 380.326 261.144 379.557 254.53 379.557C246.684 379.557 240.531 381.172 236.071 384.403C231.763 387.633 229.61 392.171 229.61 398.016C229.61 401.554 230.302 404.631 231.687 407.246C233.225 409.707 235.301 411.938 237.916 413.937C240.685 415.937 243.839 417.783 247.377 419.475C251.068 421.167 255.068 422.782 259.375 424.32C266.912 427.089 273.604 429.935 279.449 432.858C285.448 435.627 290.448 439.011 294.447 443.01C298.6 446.856 301.754 451.471 303.907 456.854C306.061 462.085 307.138 468.468 307.138 476.006C307.138 490.465 301.985 501.695 291.678 509.693C281.526 517.539 266.605 521.461 246.915 521.461C240.301 521.461 234.225 521 228.687 520.077C223.303 519.308 218.458 518.308 214.15 517.077C209.997 515.846 206.382 514.616 203.306 513.385C200.229 512.001 197.768 510.77 195.922 509.693L204.459 485.927C208.613 488.235 214.227 490.542 221.303 492.85C228.379 495.157 236.917 496.311 246.915 496.311ZM324.683 457.777C324.683 448.856 326.067 440.549 328.836 432.858C331.605 425.013 335.528 418.244 340.604 412.553C345.834 406.861 352.141 402.4 359.524 399.17C366.908 395.94 375.214 394.325 384.444 394.325C395.827 394.325 406.595 396.401 416.747 400.554L410.748 423.397C407.518 422.013 403.826 420.859 399.673 419.936C395.673 419.013 391.366 418.552 386.751 418.552C375.83 418.552 367.523 422.013 361.832 428.935C356.14 435.704 353.294 445.318 353.294 457.777C353.294 469.776 355.986 479.313 361.37 486.389C366.754 493.311 375.83 496.772 388.597 496.772C393.366 496.772 398.057 496.311 402.672 495.388C407.287 494.465 411.286 493.311 414.671 491.927L418.593 515C415.517 516.539 410.825 517.923 404.518 519.154C398.365 520.384 391.981 521 385.367 521C375.061 521 366.062 519.461 358.371 516.385C350.833 513.155 344.526 508.77 339.45 503.233C334.528 497.541 330.836 490.85 328.375 483.159C325.913 475.313 324.683 466.853 324.683 457.777ZM508.968 422.475C506.661 421.705 503.431 420.936 499.278 420.167C495.278 419.244 490.586 418.783 485.202 418.783C482.126 418.783 478.819 419.09 475.281 419.706C471.897 420.321 469.512 420.859 468.128 421.321V518H440.209V403.093C445.593 401.093 452.284 399.247 460.283 397.555C468.436 395.709 477.434 394.786 487.279 394.786C489.125 394.786 491.279 394.94 493.74 395.247C496.201 395.401 498.662 395.709 501.123 396.17C503.585 396.478 505.969 396.94 508.276 397.555C510.584 398.016 512.43 398.478 513.814 398.939L508.968 422.475ZM632.256 514.308C626.873 515.693 619.873 517.077 611.259 518.461C602.645 520 593.185 520.769 582.879 520.769C573.188 520.769 565.035 519.384 558.42 516.616C551.96 513.847 546.73 510.001 542.73 505.079C538.884 500.156 536.116 494.311 534.424 487.543C532.731 480.62 531.885 473.083 531.885 464.93V397.324H559.805V460.546C559.805 473.468 561.651 482.697 565.342 488.235C569.188 493.773 575.803 496.541 585.186 496.541C588.57 496.541 592.108 496.388 595.8 496.08C599.645 495.772 602.491 495.388 604.337 494.926V397.324H632.256V514.308ZM736.552 454.547C736.552 441.933 734.937 432.858 731.706 427.32C728.63 421.628 722.784 418.783 714.17 418.783C711.094 418.783 707.709 419.013 704.018 419.475C700.326 419.936 697.557 420.321 695.711 420.629V518H667.792V401.247C673.176 399.708 680.175 398.247 688.789 396.863C697.557 395.478 706.787 394.786 716.478 394.786C724.784 394.786 731.552 395.863 736.782 398.016C742.166 400.17 746.627 403.016 750.165 406.554C751.857 405.323 754.011 404.016 756.626 402.631C759.241 401.247 762.164 400.016 765.394 398.939C768.624 397.709 772.008 396.709 775.546 395.94C779.238 395.171 782.93 394.786 786.622 394.786C796.005 394.786 803.696 396.17 809.696 398.939C815.849 401.554 820.617 405.323 824.001 410.245C827.539 415.014 829.924 420.859 831.154 427.781C832.539 434.55 833.231 442.01 833.231 450.163V518H805.312V454.547C805.312 441.933 803.773 432.858 800.697 427.32C797.62 421.628 791.698 418.783 782.93 418.783C778.469 418.783 774.239 419.552 770.239 421.09C766.24 422.475 763.24 423.859 761.241 425.243C762.471 429.089 763.317 433.165 763.779 437.472C764.24 441.78 764.471 446.394 764.471 451.317V518H736.552V454.547Z" fill="#C2C9BA"/>
<path d="M170.99 300C168.859 293.759 166.652 287.593 164.368 281.504C162.085 275.415 159.878 269.174 157.747 262.78H91.0703C88.9391 269.174 86.7317 275.491 84.4483 281.733C82.3171 287.822 80.1859 293.911 78.0547 300H48.1417C54.0786 283.103 59.7111 267.499 65.0391 253.19C70.3671 238.88 75.5429 225.332 80.5665 212.544C85.7423 199.757 90.8419 187.579 95.8655 176.01C100.889 164.44 106.065 153.023 111.393 141.758H138.566C143.894 153.023 149.069 164.44 154.093 176.01C159.117 187.579 164.14 199.757 169.164 212.544C174.339 225.332 179.591 238.88 184.919 253.19C190.4 267.499 196.108 283.103 202.045 300H170.99ZM124.408 172.356C120.907 180.424 116.873 190.243 112.306 201.812C107.892 213.382 103.249 225.941 98.3773 239.489H150.44C145.568 225.941 140.849 213.306 136.282 201.584C131.715 189.862 127.757 180.12 124.408 172.356ZM288.723 205.466C286.439 204.705 283.243 203.944 279.132 203.182C275.174 202.269 270.531 201.812 265.203 201.812C262.159 201.812 258.886 202.117 255.385 202.726C252.036 203.335 249.676 203.867 248.306 204.324V300H220.677V186.285C226.005 184.306 232.626 182.479 240.542 180.805C248.611 178.978 257.516 178.065 267.259 178.065C269.085 178.065 271.217 178.217 273.652 178.521C276.088 178.674 278.524 178.978 280.959 179.435C283.395 179.739 285.754 180.196 288.038 180.805C290.321 181.261 292.148 181.718 293.518 182.175L288.723 205.466ZM340.63 300H313V180.576H340.63V300ZM343.598 145.64C343.598 150.816 341.924 154.926 338.575 157.97C335.226 161.015 331.268 162.537 326.701 162.537C321.982 162.537 317.948 161.015 314.599 157.97C311.25 154.926 309.575 150.816 309.575 145.64C309.575 140.312 311.25 136.126 314.599 133.081C317.948 130.036 321.982 128.514 326.701 128.514C331.268 128.514 335.226 130.036 338.575 133.081C341.924 136.126 343.598 140.312 343.598 145.64ZM403.508 227.158C407.009 223.505 410.739 219.623 414.697 215.513C418.655 211.251 422.537 207.064 426.343 202.954C430.148 198.692 433.726 194.658 437.075 190.852C440.576 186.894 443.544 183.469 445.98 180.576H478.633C471.022 189.101 462.954 197.931 454.429 207.064C446.056 216.198 437.607 225.103 429.083 233.78C433.65 237.586 438.445 242.229 443.468 247.709C448.492 253.037 453.363 258.746 458.082 264.835C462.801 270.924 467.216 277.013 471.326 283.103C475.436 289.192 478.861 294.824 481.602 300H449.634C446.893 295.281 443.697 290.333 440.043 285.158C436.542 279.982 432.736 274.958 428.626 270.087C424.516 265.216 420.329 260.649 416.067 256.386C411.805 251.972 407.618 248.242 403.508 245.198V300H375.879V127.372L403.508 122.806V227.158ZM603.632 240.174C603.632 249.612 602.261 258.213 599.521 265.977C596.781 273.741 592.899 280.362 587.876 285.843C582.852 291.323 576.763 295.585 569.608 298.63C562.606 301.675 554.842 303.197 546.317 303.197C537.793 303.197 530.029 301.675 523.026 298.63C516.024 295.585 510.011 291.323 504.987 285.843C499.964 280.362 496.006 273.741 493.113 265.977C490.373 258.213 489.003 249.612 489.003 240.174C489.003 230.736 490.373 222.211 493.113 214.6C496.006 206.836 499.964 200.214 504.987 194.734C510.163 189.253 516.252 185.067 523.255 182.175C530.257 179.13 537.945 177.608 546.317 177.608C554.69 177.608 562.377 179.13 569.38 182.175C576.535 185.067 582.624 189.253 587.647 194.734C592.671 200.214 596.553 206.836 599.293 214.6C602.185 222.211 603.632 230.736 603.632 240.174ZM575.317 240.174C575.317 228.3 572.729 218.938 567.553 212.088C562.53 205.085 555.451 201.584 546.317 201.584C537.184 201.584 530.029 205.085 524.853 212.088C519.829 218.938 517.318 228.3 517.318 240.174C517.318 252.2 519.829 261.714 524.853 268.717C530.029 275.719 537.184 279.221 546.317 279.221C555.451 279.221 562.53 275.719 567.553 268.717C572.729 261.714 575.317 252.2 575.317 240.174ZM659.725 227.158C663.227 223.505 666.956 219.623 670.914 215.513C674.872 211.251 678.754 207.064 682.56 202.954C686.366 198.692 689.943 194.658 693.292 190.852C696.793 186.894 699.762 183.469 702.197 180.576H734.85C727.239 189.101 719.171 197.931 710.646 207.064C702.273 216.198 693.825 225.103 685.3 233.78C689.867 237.586 694.662 242.229 699.686 247.709C704.709 253.037 709.58 258.746 714.3 264.835C719.019 270.924 723.433 277.013 727.543 283.103C731.654 289.192 735.079 294.824 737.819 300H705.851C703.111 295.281 699.914 290.333 696.26 285.158C692.759 279.982 688.953 274.958 684.843 270.087C680.733 265.216 676.547 260.649 672.284 256.386C668.022 251.972 663.836 248.242 659.725 245.198V300H632.096V127.372L659.725 122.806V227.158ZM788.918 284.929C788.918 290.257 787.091 294.596 783.438 297.945C779.936 301.294 775.674 302.968 770.65 302.968C765.475 302.968 761.136 301.294 757.635 297.945C754.134 294.596 752.383 290.257 752.383 284.929C752.383 279.601 754.134 275.263 757.635 271.914C761.136 268.413 765.475 266.662 770.65 266.662C775.674 266.662 779.936 268.413 783.438 271.914C787.091 275.263 788.918 279.601 788.918 284.929Z" fill="#C2C9BA"/>
<path fill-rule="evenodd" clip-rule="evenodd" d="M901.384 17.5387C894.268 20.9455 890.541 26.2034 887.639 36.934C885.542 44.6785 884.923 62.9316 884.162 139.448C883.431 212.766 882.763 233.44 881.011 236.777C879.153 240.316 878.444 240.612 876.697 238.567C875.545 237.221 870.486 218.397 865.454 196.735C854.822 150.973 850.597 137.786 844.649 131.793C840.942 128.058 839.122 127.559 831.66 128.227C820.46 129.229 812.404 136.068 805.691 150.27L802.891 158.847L801.816 167.435L801 197.535C801.297 239.886 803.917 255.164 813.674 271.428C819.886 281.785 834.832 298.072 850.237 311.274C862.087 321.428 865.131 325.153 869.284 334.582C872.211 341.226 872.442 346.493 872.475 407.45C872.516 481.946 873.258 487.562 881.907 478.821C885.164 475.527 885.382 472.807 886.525 421.086C887.187 391.232 887.457 359.153 887.129 349.799C886.281 325.574 883.159 319.426 862.843 301.945C842.425 284.377 829.375 269.95 824.968 260.073C820.683 250.469 818.126 227.19 817.616 193.154C817.273 170.329 817.576 167.298 821.015 159.206C825.359 148.981 829.137 143.923 832.429 143.923C835.945 143.923 839.083 153.852 848.832 195.816C863.296 258.07 864.26 260.288 876.838 260.288C882.895 260.288 884.444 259.464 887.802 254.47C899.283 237.382 900.471 227.937 900.519 153.419C900.541 117.781 901.352 78.3061 902.323 65.6975C903.991 44.0251 904.347 42.489 908.856 37.5104C913.522 32.3617 913.7 32.3188 916.983 35.5412C920.694 39.1861 922.553 45.1654 926.19 65.1533C928.18 76.097 928.617 97.6172 928.556 181.518C928.513 238.134 928.981 289.29 929.597 295.197C930.938 308.082 933.385 313.803 940.224 320.047C947.678 326.852 954.975 326.39 961.182 318.719C967.755 310.595 979.024 280.843 991.182 239.509C997.512 217.987 1002.48 204.087 1004.59 202.023C1007.84 198.824 1008.04 198.862 1012.35 203.543C1016.72 208.285 1016.77 208.624 1016.51 231.182C1016.2 257.878 1012.75 274.932 1003.7 294.497C994.455 314.482 989.062 321.922 962.019 351.999C944.627 371.345 935.64 382.763 933.311 388.473C930.998 394.148 927.564 414.645 922.501 453.002C915.535 505.769 915.243 509.485 917.757 513.648C920.628 518.403 926.614 519.527 929.927 515.932C931.077 514.684 931.907 508.703 931.907 501.664C931.907 485.88 939.442 421.548 942.774 408.877C946.894 393.216 952.644 384.234 971.87 363.426C1010.49 321.621 1025.55 293.57 1030.98 253.299C1033.82 232.185 1032.54 203.688 1028.4 196.013C1023.11 186.205 1017.11 182.413 1006.89 182.413C992.094 182.413 990.029 185.847 976.34 233.196C965.414 270.977 954.675 304.207 952.693 306.358C952.194 306.9 950.539 306.222 949.014 304.852C946.454 302.548 946.356 296.243 947.737 221.798C950.04 97.56 950.004 96.3874 942.743 61.5729C939.354 45.3266 935.474 29.4777 934.117 26.3537C929.717 16.2193 913.345 11.8082 901.384 17.5387Z" fill="#ACFF00"/>
</g>
<defs>
<clipPath id="clip0_1101_2">
<rect width="1080" height="540" fill="white"/>
</clipPath>
</defs>
</svg>
